<?xml version="1.0" encoding="UTF-8" standalone="no"?>
<!DOCTYPE svg PUBLIC "-//W3C//DTD SVG 1.1//EN"
 "http://www.w3.org/Graphics/SVG/1.1/DTD/svg11.dtd">
<!-- Generated by graphviz version 2.44.1 (20200629.0846)
 -->
<!-- Title: G Pages: 1 -->
<svg width="552pt" height="332pt"
 viewBox="0.00 0.00 551.75 332.00" xmlns="http://www.w3.org/2000/svg" xmlns:xlink="http://www.w3.org/1999/xlink">
<g id="graph0" class="graph" transform="scale(1 1) rotate(0) translate(4 328)">
<title>G</title>
<polygon fill="white" stroke="transparent" points="-4,4 -4,-328 547.75,-328 547.75,4 -4,4"/>
<!-- users -->
<g id="node1" class="node">
<title>users</title>
<polygon fill="none" stroke="black" points="257.75,-324 217.37,-306 257.75,-288 298.14,-306 257.75,-324"/>
<text text-anchor="middle" x="257.75" y="-302.3" font-family="Times,serif" font-size="14.00">users</text>
</g>
<!-- help_requests -->
<g id="node2" class="node">
<title>help_requests</title>
<polygon fill="none" stroke="black" points="93.75,-180 9.97,-162 93.75,-144 177.54,-162 93.75,-180"/>
<text text-anchor="middle" x="93.75" y="-158.3" font-family="Times,serif" font-size="14.00">help_requests</text>
</g>
<!-- users&#45;&#45;help_requests -->
<g id="edge1" class="edge">
<title>users&#45;&#45;help_requests</title>
<path fill="none" stroke="black" d="M220.53,-304.43C182.32,-301.63 124.5,-290.73 95.75,-252 80.09,-230.9 84.35,-198.58 88.98,-179.24"/>
</g>
<!-- user_can_work_in -->
<g id="node6" class="node">
<title>user_can_work_in</title>
<polygon fill="none" stroke="black" points="301.75,-180 195.01,-162 301.75,-144 408.5,-162 301.75,-180"/>
<text text-anchor="middle" x="301.75" y="-158.3" font-family="Times,serif" font-size="14.00">user_can_work_in</text>
</g>
<!-- users&#45;&#45;user_can_work_in -->
<g id="edge7" class="edge">
<title>users&#45;&#45;user_can_work_in</title>
<path fill="none" stroke="black" d="M270.72,-293.39C280.74,-283.5 293.86,-268.34 299.75,-252 308.41,-228.01 306.74,-197.97 304.46,-179.65"/>
</g>
<!-- user_applies_to -->
<g id="node7" class="node">
<title>user_applies_to</title>
<polygon fill="none" stroke="black" points="197.75,-252 105.08,-234 197.75,-216 290.42,-234 197.75,-252"/>
<text text-anchor="middle" x="197.75" y="-230.3" font-family="Times,serif" font-size="14.00">user_applies_to</text>
</g>
<!-- users&#45;&#45;user_applies_to -->
<g id="edge2" class="edge">
<title>users&#45;&#45;user_applies_to</title>
<path fill="none" stroke="black" d="M247.03,-292.49C236.78,-280.53 221.33,-262.51 210.47,-249.83"/>
</g>
<!-- user_has_skills -->
<g id="node8" class="node">
<title>user_has_skills</title>
<polygon fill="none" stroke="black" points="452.75,-252 361.76,-234 452.75,-216 543.75,-234 452.75,-252"/>
<text text-anchor="middle" x="452.75" y="-230.3" font-family="Times,serif" font-size="14.00">user_has_skills</text>
</g>
<!-- users&#45;&#45;user_has_skills -->
<g id="edge9" class="edge">
<title>users&#45;&#45;user_has_skills</title>
<path fill="none" stroke="black" d="M278.99,-297.38C313.54,-284.97 382.05,-260.38 421.95,-246.06"/>
</g>
<!-- locations -->
<g id="node3" class="node">
<title>locations</title>
<polygon fill="none" stroke="black" points="282.75,-108 222.76,-90 282.75,-72 342.75,-90 282.75,-108"/>
<text text-anchor="middle" x="282.75" y="-86.3" font-family="Times,serif" font-size="14.00">locations</text>
</g>
<!-- help_requests&#45;&#45;locations -->
<g id="edge5" class="edge">
<title>help_requests&#45;&#45;locations</title>
<path fill="none" stroke="black" d="M122.87,-150.22C159.63,-136.6 222.28,-113.4 257.24,-100.45"/>
</g>
<!-- hr_has_rewards -->
<g id="node9" class="node">
<title>hr_has_rewards</title>
<polygon fill="none" stroke="black" points="93.75,-108 0.25,-90 93.75,-72 187.26,-90 93.75,-108"/>
<text text-anchor="middle" x="93.75" y="-86.3" font-family="Times,serif" font-size="14.00">hr_has_rewards</text>
</g>
<!-- help_requests&#45;&#45;hr_has_rewards -->
<g id="edge4" class="edge">
<title>help_requests&#45;&#45;hr_has_rewards</title>
<path fill="none" stroke="black" d="M93.75,-143.7C93.75,-132.85 93.75,-118.92 93.75,-108.1"/>
</g>
<!-- rewards -->
<g id="node4" class="node">
<title>rewards</title>
<polygon fill="none" stroke="black" points="93.75,-36 39.29,-18 93.75,0 148.22,-18 93.75,-36"/>
<text text-anchor="middle" x="93.75" y="-14.3" font-family="Times,serif" font-size="14.00">rewards</text>
</g>
<!-- skills -->
<g id="node5" class="node">
<title>skills</title>
<polygon fill="none" stroke="black" points="467.75,-180 426.53,-162 467.75,-144 508.98,-162 467.75,-180"/>
<text text-anchor="middle" x="467.75" y="-158.3" font-family="Times,serif" font-size="14.00">skills</text>
</g>
<!-- user_can_work_in&#45;&#45;locations -->
<g id="edge8" class="edge">
<title>user_can_work_in&#45;&#45;locations</title>
<path fill="none" stroke="black" d="M297.25,-144.41C294.18,-133.09 290.13,-118.18 287.09,-106.99"/>
</g>
<!-- user_applies_to&#45;&#45;help_requests -->
<g id="edge3" class="edge">
<title>user_applies_to&#45;&#45;help_requests</title>
<path fill="none" stroke="black" d="M177.7,-219.5C159.05,-206.95 131.44,-188.37 113.04,-175.98"/>
</g>
<!-- user_has_skills&#45;&#45;skills -->
<g id="edge10" class="edge">
<title>user_has_skills&#45;&#45;skills</title>
<path fill="none" stroke="black" d="M456.31,-216.41C458.73,-205.09 461.93,-190.18 464.33,-178.99"/>
</g>
<!-- hr_has_rewards&#45;&#45;rewards -->
<g id="edge6" class="edge">
<title>hr_has_rewards&#45;&#45;rewards</title>
<path fill="none" stroke="black" d="M93.75,-71.7C93.75,-60.85 93.75,-46.92 93.75,-36.1"/>
</g>
</g>
</svg>
