<?xml version="1.0" encoding="UTF-8" standalone="no"?>
<!DOCTYPE svg PUBLIC "-//W3C//DTD SVG 1.1//EN"
 "http://www.w3.org/Graphics/SVG/1.1/DTD/svg11.dtd">
<!-- Generated by graphviz version 2.44.1 (20200629.0846)
 -->
<!-- Title: G Pages: 1 -->
<svg width="587pt" height="332pt"
 viewBox="0.00 0.00 587.31 332.00" xmlns="http://www.w3.org/2000/svg" xmlns:xlink="http://www.w3.org/1999/xlink">
<g id="graph0" class="graph" transform="scale(1 1) rotate(0) translate(4 328)">
<title>G</title>
<polygon fill="white" stroke="transparent" points="-4,4 -4,-328 583.31,-328 583.31,4 -4,4"/>
<!-- users -->
<g id="node1" class="node">
<title>users</title>
<polygon fill="none" stroke="black" points="279.97,-324 239.58,-306 279.97,-288 320.35,-306 279.97,-324"/>
<text text-anchor="middle" x="279.97" y="-302.3" font-family="Times,serif" font-size="14.00">users</text>
</g>
<!-- can_work_in -->
<g id="node6" class="node">
<title>can_work_in</title>
<polygon fill="none" stroke="black" points="79.97,-180 0.03,-162 79.97,-144 159.9,-162 79.97,-180"/>
<text text-anchor="middle" x="79.97" y="-158.3" font-family="Times,serif" font-size="14.00">can_work_in</text>
</g>
<!-- users&#45;&#45;can_work_in -->
<g id="edge8" class="edge">
<title>users&#45;&#45;can_work_in</title>
<path fill="none" stroke="black" d="M242.29,-304.73C201.07,-302.3 135.94,-291.84 98.97,-252 80.8,-232.43 78.34,-199.91 78.76,-180.07"/>
</g>
<!-- create_request -->
<g id="node7" class="node">
<title>create_request</title>
<polygon fill="none" stroke="black" points="194.97,-252 107.83,-234 194.97,-216 282.11,-234 194.97,-252"/>
<text text-anchor="middle" x="194.97" y="-230.3" font-family="Times,serif" font-size="14.00">create_request</text>
</g>
<!-- users&#45;&#45;create_request -->
<g id="edge1" class="edge">
<title>users&#45;&#45;create_request</title>
<path fill="none" stroke="black" d="M266.31,-293.75C251.39,-281.46 227.48,-261.78 211.51,-248.62"/>
</g>
<!-- applies_to -->
<g id="node8" class="node">
<title>applies_to</title>
<polygon fill="none" stroke="black" points="365.97,-252 299.61,-234 365.97,-216 432.33,-234 365.97,-252"/>
<text text-anchor="middle" x="365.97" y="-230.3" font-family="Times,serif" font-size="14.00">applies_to</text>
</g>
<!-- users&#45;&#45;applies_to -->
<g id="edge3" class="edge">
<title>users&#45;&#45;applies_to</title>
<path fill="none" stroke="black" d="M293.78,-293.75C309.17,-281.23 333.99,-261.03 350.14,-247.88"/>
</g>
<!-- has_skills -->
<g id="node9" class="node">
<title>has_skills</title>
<polygon fill="none" stroke="black" points="514.97,-252 450.78,-234 514.97,-216 579.15,-234 514.97,-252"/>
<text text-anchor="middle" x="514.97" y="-230.3" font-family="Times,serif" font-size="14.00">has_skills</text>
</g>
<!-- users&#45;&#45;has_skills -->
<g id="edge10" class="edge">
<title>users&#45;&#45;has_skills</title>
<path fill="none" stroke="black" d="M302.93,-298.16C345.78,-285.4 437.86,-257.97 485.33,-243.83"/>
</g>
<!-- help_requests -->
<g id="node2" class="node">
<title>help_requests</title>
<polygon fill="none" stroke="black" points="261.97,-180 178.18,-162 261.97,-144 345.75,-162 261.97,-180"/>
<text text-anchor="middle" x="261.97" y="-158.3" font-family="Times,serif" font-size="14.00">help_requests</text>
</g>
<!-- location -->
<g id="node3" class="node">
<title>location</title>
<polygon fill="none" stroke="black" points="97.97,-108 42.67,-90 97.97,-72 153.27,-90 97.97,-108"/>
<text text-anchor="middle" x="97.97" y="-86.3" font-family="Times,serif" font-size="14.00">location</text>
</g>
<!-- help_requests&#45;&#45;location -->
<g id="edge6" class="edge">
<title>help_requests&#45;&#45;location</title>
<path fill="none" stroke="black" d="M235.25,-149.6C203.39,-136 150.7,-113.51 120.7,-100.7"/>
</g>
<!-- has_reward -->
<g id="node10" class="node">
<title>has_reward</title>
<polygon fill="none" stroke="black" points="261.97,-108 189.24,-90 261.97,-72 334.69,-90 261.97,-108"/>
<text text-anchor="middle" x="261.97" y="-86.3" font-family="Times,serif" font-size="14.00">has_reward</text>
</g>
<!-- help_requests&#45;&#45;has_reward -->
<g id="edge5" class="edge">
<title>help_requests&#45;&#45;has_reward</title>
<path fill="none" stroke="black" d="M261.97,-143.7C261.97,-132.85 261.97,-118.92 261.97,-108.1"/>
</g>
<!-- rewards -->
<g id="node4" class="node">
<title>rewards</title>
<polygon fill="none" stroke="black" points="261.97,-36 207.51,-18 261.97,0 316.43,-18 261.97,-36"/>
<text text-anchor="middle" x="261.97" y="-14.3" font-family="Times,serif" font-size="14.00">rewards</text>
</g>
<!-- skills -->
<g id="node5" class="node">
<title>skills</title>
<polygon fill="none" stroke="black" points="514.97,-180 473.74,-162 514.97,-144 556.19,-162 514.97,-180"/>
<text text-anchor="middle" x="514.97" y="-158.3" font-family="Times,serif" font-size="14.00">skills</text>
</g>
<!-- can_work_in&#45;&#45;location -->
<g id="edge9" class="edge">
<title>can_work_in&#45;&#45;location</title>
<path fill="none" stroke="black" d="M84.14,-144.76C87.05,-133.46 90.91,-118.44 93.81,-107.15"/>
</g>
<!-- create_request&#45;&#45;help_requests -->
<g id="edge2" class="edge">
<title>create_request&#45;&#45;help_requests</title>
<path fill="none" stroke="black" d="M208.85,-218.5C220.35,-206.48 236.61,-189.49 248.1,-177.49"/>
</g>
<!-- applies_to&#45;&#45;help_requests -->
<g id="edge4" class="edge">
<title>applies_to&#45;&#45;help_requests</title>
<path fill="none" stroke="black" d="M347.85,-220.81C329.23,-208.27 300.34,-188.83 281.28,-176"/>
</g>
<!-- has_skills&#45;&#45;skills -->
<g id="edge11" class="edge">
<title>has_skills&#45;&#45;skills</title>
<path fill="none" stroke="black" d="M514.97,-215.7C514.97,-204.85 514.97,-190.92 514.97,-180.1"/>
</g>
<!-- has_reward&#45;&#45;rewards -->
<g id="edge7" class="edge">
<title>has_reward&#45;&#45;rewards</title>
<path fill="none" stroke="black" d="M261.97,-71.7C261.97,-60.85 261.97,-46.92 261.97,-36.1"/>
</g>
</g>
</svg>
